<?xml version="1.0" encoding="utf-8"?>
<!-- Generator: Adobe Illustrator 27.0.0, SVG Export Plug-In . SVG Version: 6.00 Build 0)  -->
<svg version="1.1" xmlns="http://www.w3.org/2000/svg" xmlns:xlink="http://www.w3.org/1999/xlink" x="0px" y="0px"
	 viewBox="0 0 750 500" style="enable-background:new 0 0 750 500;" xml:space="preserve">
<style type="text/css">
	.st0{fill:#96E3FE;}
	.st1{clip-path:url(#SVGID_00000159460701418444423840000015114842498029096341_);}
	.st2{fill:#FFFFFF;}
	.st3{clip-path:url(#SVGID_00000056400771189739830830000015120520881369544880_);}
	.st4{fill:#227555;}
	.st5{fill:#F4EBB8;}
	.st6{fill:#DBB383;}
	.st7{fill:#D64366;}
	.st8{fill:#B2623F;}
	.st9{fill:#84C0D8;}
	.st10{fill:#EFE0A0;}
	.st11{fill:#E5C68F;}
	.st12{fill:#F06770;}
	.st13{fill:#DDB357;}
	.st14{fill:#749E3C;}
	.st15{opacity:0.54;fill:#4B8E2F;}
	.st16{fill:#E0D56C;}
	.st17{clip-path:url(#SVGID_00000177484021208412206210000015989939390487412621_);}
	.st18{fill:#3D67A6;}
	.st19{fill:#467EB3;}
	.st20{fill:#FECCB6;}
	.st21{fill:#FAAEA2;}
	.st22{fill:none;stroke:#EB757F;stroke-width:2;stroke-linecap:round;stroke-linejoin:round;stroke-miterlimit:10;}
	.st23{fill:#1C44A0;}
	.st24{fill:none;stroke:#A86E34;stroke-linecap:round;stroke-linejoin:round;stroke-miterlimit:10;}
	.st25{fill:#DCF0F2;}
	.st26{fill:#253A63;}
	.st27{clip-path:url(#SVGID_00000119098524757233446080000011565806685117432255_);}
	.st28{fill:#F5CB58;}
	.st29{fill:none;stroke:#92B1D4;stroke-miterlimit:10;}
	.st30{fill:#0F0F0F;}
	.st31{fill:#2B2B2B;}
	.st32{fill:#82213B;}
	.st33{fill:#213C57;}
	.st34{fill:#92B1D4;}
	.st35{fill:#1E2742;}
	.st36{fill:#284882;}
	.st37{clip-path:url(#SVGID_00000143615289213573483480000017993916865193044107_);}
	.st38{fill:#050505;}
	.st39{fill:#31549B;}
	.st40{fill:none;stroke:#A86E34;stroke-miterlimit:10;}
	.st41{clip-path:url(#SVGID_00000177479494458290025710000013245700306710315922_);}
	.st42{fill:#161616;}
	.st43{fill:#111111;}
	.st44{fill:none;stroke:#470F2A;stroke-linecap:round;stroke-linejoin:round;stroke-miterlimit:10;}
	.st45{fill:#1E1E1E;}
</style>
<g id="BACKGROUND">
	<rect class="st0" width="750" height="500"/>
</g>
<g id="OBJECTS">
	<g>
		<g>
			<defs>
				<rect id="SVGID_1_" width="750" height="500"/>
			</defs>
			<clipPath id="SVGID_00000036960247150469855270000016424812824243279294_">
				<use xlink:href="#SVGID_1_"  style="overflow:visible;"/>
			</clipPath>
			<g style="clip-path:url(#SVGID_00000036960247150469855270000016424812824243279294_);">
				<path class="st2" d="M-20.3,56.1c-3-8.9,6-19.3,15.5-18c-2.1-12.1,6.8-25,19-27.7c12.3-2.7,25.9,5.3,29.3,17.1
					c5.7-5,15.6-4.5,20.8,1C71.1,17.5,86.7,12.2,99.1,17c12.4,4.8,20,19.1,17,31.7c4.5-2.5,10.5-2.1,14.7,0.9
					c4.2,3,6.3,8.4,5.3,13.4H-20.8L-20.3,56.1z"/>
				<path class="st2" d="M763.8,66.6c5.4-14.3,4.1-30.9-3.5-44.1c-2.3-4-5.3-7.7-9.4-9.6c-4.2-1.9-9.7-1.3-12.5,2.2
					c1.2-10-4.9-20.4-14.1-24.2c-9.3-3.9-20.9-0.8-27.2,7c-6.2,7.9-6.5,19.9-0.6,28c-4.5-3.1-10.7-3.5-15.6-1.1
					c-4.9,2.4-8.4,7.5-8.8,12.9c-3.5-4.1-10.3-4.8-14.6-1.6c-3.1-11-16.1-18.1-27-14.8c-10.9,3.3-17.8,16.4-14.3,27.3
					c-4.7-2.6-11.2-1.2-14.5,3c-3.3,4.2-3.1,10.8,0.4,14.8L763.8,66.6z"/>
				<path class="st2" d="M527.6,162.4c0.8-4.5-1.3-9.4-5.2-11.9c-3.9-2.5-9.2-2.4-13,0.2c1.8-8.1-4.4-17-12.6-18.2
					c-8.2-1.2-16.7,5.6-17.3,13.9c-3.5-2.5-8.8-1.9-11.7,1.3c-2.7-3.1-7.9-3.6-11-1c-1.9-6.7-9.9-10.9-16.5-8.7
					c-6.6,2.2-10.6,10.2-8.2,16.8c-6-1-12.3,3.2-13.7,9.1L527.6,162.4z"/>
				<path class="st2" d="M774.8,203c0.8-4.5-1.3-9.4-5.2-11.9c-3.9-2.5-9.2-2.4-13,0.2c1.8-8.1-4.4-17-12.6-18.2
					s-16.7,5.6-17.3,13.9c-3.5-2.5-8.8-1.9-11.7,1.3c-2.7-3.1-7.9-3.6-11-1c-1.9-6.7-9.9-10.9-16.5-8.7c-6.6,2.2-10.6,10.2-8.2,16.8
					c-6-1-12.3,3.2-13.7,9.1L774.8,203z"/>
				<path class="st2" d="M90.5,178.3c0.5-4.4,4.7-7.9,9.1-7.7c-1.3-9.7,6.2-19.7,15.8-21.1c9.6-1.4,19.7,6,21.3,15.6
					c2.1-2.3,6.4-1.9,8,0.7c1.1-7.4,8.8-13.2,16.3-12.1c7.4,1,13.2,8.7,12.3,16.1c5-3.7,13.4-0.7,14.9,5.4L90.5,178.3z"/>
			</g>
		</g>
		<g>
			<defs>
				<rect id="SVGID_00000089570727900665565210000005271195968168809630_" width="750" height="500"/>
			</defs>
			<clipPath id="SVGID_00000072958757095577146680000013006867623460221838_">
				<use xlink:href="#SVGID_00000089570727900665565210000005271195968168809630_"  style="overflow:visible;"/>
			</clipPath>
			<g style="clip-path:url(#SVGID_00000072958757095577146680000013006867623460221838_);">
				<path class="st4" d="M7.3,260.6c6.2-1.7,13.4,1.6,16.3,7.4c4.6-3.2,11.6-2.1,14.9,2.4c1.5-5.8,9.5-8.6,14.3-5.1
					c1.5-6.7,7.1-12.3,13.8-13.8c6.7-1.5,14.2,1.2,18.4,6.7c0.8-6.4,7.5-11.5,13.9-10.5c6.4,1,11.3,7.8,10.2,14.2
					c4.4-4.9,12.8-5.6,18-1.5c4.4-6.1,13.6-8.1,20.1-4.4c0.2-6.6,5.3-12.8,11.8-14.1c6.5-1.4,13.7,2.2,16.5,8.2
					c2.6-3.5,7.6-5.1,11.8-3.6c4.1,1.5,7.1,5.8,6.9,10.2c7.9-3.3,17.8-0.6,23,6.2c1-4.8,5.2-8.7,10-9.4c4.8-0.6,9.9,2.1,12.1,6.5
					c6.5-8.4,18.1-12.4,28.4-9.7c10.3,2.7,18.5,11.9,20,22.4c-78.6,20.5-160.7,13.4-240.7,23.9c-22.9,3-44.8,9.8-67.2,14
					c-3.2-14.2-5.2-37.6,16.6-35.6C-2.9,268.6,0.8,262.4,7.3,260.6z"/>
				<path class="st4" d="M493.5,250.2c1.8-9.4,10.6-16.9,20.2-17.3c9.5-0.4,18.9,6.5,21.4,15.7c2.1-2.5,6.1-3.3,9-1.8
					c2.9,1.5,4.5,5.2,3.6,8.4c3.9-1.2,8.5,1.8,8.8,5.9c5.9-5.7,16.3-5.7,22.2,0c0.4-7.8,7.1-14.9,14.9-15.6
					c7.8-0.8,15.7,4.9,17.6,12.5c1.2-8.3,9.2-15.1,17.6-15c8.4,0.2,16.1,7.3,17,15.7c8-3.9,19,0.7,21.7,9.2c4.6-2.9,11.4-1,13.9,3.8
					c7.8-9.7,25.6-7.7,31.2,3.4c3.3-4.2,11-3.5,13.4,1.3c3.6-6.3,12.6-8.1,19.3-5.1c6.6,3,11,9.8,12.8,16.8c1.9,7,1.6,14.5,1.3,21.7
					c0.2-4.1-130.1-18.7-142.2-20.1c-24.1-2.8-48.3-5.3-72.5-7.4c-11.7-1-23.5-2-35.3-2.9c-9.7-0.7-25.1,1.1-33.9-2.9
					c-7.7-3.5-9.5-9.9-4.5-15.6c1.2-1.4,5-0.6,6.6-1.7c1.3-1,1.5-4.5,3.3-5.9C484.6,250.5,488.8,248.5,493.5,250.2z"/>
				<g>
					<g>
						<rect x="270.1" y="197.8" class="st5" width="209.9" height="75.7"/>
						<rect x="267.7" y="232.8" class="st6" width="214.7" height="4.1"/>
						<polygon class="st7" points="500.4,205.8 249.6,205.8 269.7,156.4 480.3,156.4 						"/>
						<g>
							<g>
								<g>
									<rect x="447.2" y="211.1" class="st8" width="7" height="16.3"/>
									<rect x="448.5" y="212.5" class="st9" width="4.4" height="13.7"/>
								</g>
								<g>
									<rect x="466" y="211.1" class="st8" width="7" height="16.3"/>
									<rect x="467.3" y="212.5" class="st9" width="4.4" height="13.7"/>
								</g>
								<g>
									<rect x="428.4" y="211.1" class="st8" width="7" height="16.3"/>
									<rect x="429.7" y="212.5" class="st9" width="4.4" height="13.7"/>
								</g>
							</g>
							<g>
								<g>
									<rect x="447.2" y="243.4" class="st8" width="7" height="16.3"/>
									<rect x="448.5" y="244.8" class="st9" width="4.4" height="13.7"/>
								</g>
								<g>
									<rect x="466" y="243.4" class="st8" width="7" height="16.3"/>
									<rect x="467.3" y="244.8" class="st9" width="4.4" height="13.7"/>
								</g>
								<g>
									<rect x="428.4" y="243.4" class="st8" width="7" height="16.3"/>
									<rect x="429.7" y="244.8" class="st9" width="4.4" height="13.7"/>
								</g>
							</g>
						</g>
						<g>
							<g>
								<g>
									<rect x="296.2" y="211.1" class="st8" width="7" height="16.3"/>
									<rect x="297.5" y="212.5" class="st9" width="4.4" height="13.7"/>
								</g>
								<g>
									<rect x="315" y="211.1" class="st8" width="7" height="16.3"/>
									<rect x="316.3" y="212.5" class="st9" width="4.4" height="13.7"/>
								</g>
								<g>
									<rect x="277.4" y="211.1" class="st8" width="7" height="16.3"/>
									<rect x="278.7" y="212.5" class="st9" width="4.4" height="13.7"/>
								</g>
							</g>
							<g>
								<g>
									<rect x="296.2" y="243.4" class="st8" width="7" height="16.3"/>
									<rect x="297.5" y="244.8" class="st9" width="4.4" height="13.7"/>
								</g>
								<g>
									<rect x="315" y="243.4" class="st8" width="7" height="16.3"/>
									<rect x="316.3" y="244.8" class="st9" width="4.4" height="13.7"/>
								</g>
								<g>
									<rect x="277.4" y="243.4" class="st8" width="7" height="16.3"/>
									<rect x="278.7" y="244.8" class="st9" width="4.4" height="13.7"/>
								</g>
							</g>
						</g>
					</g>
					<g>
						<g>
							<polygon class="st10" points="421,201.6 421,271.7 330.3,271.7 330.3,201.6 375,156.4 							"/>
							<path class="st11" d="M375,156.4l-44.7,45.2v9.3l44.3-44.3l45,45h1.4v-10L375,156.4z"/>
							<path class="st12" d="M375,143.2L314.2,204h16.3l45-45l45,45h15.2L375,143.2z"/>
						</g>
						<g>
							<g>
								<rect x="361.1" y="242" class="st8" width="27.8" height="33.8"/>
								<rect x="362.9" y="244.1" class="st13" width="24.2" height="29.5"/>
								<rect x="374.4" y="244.1" class="st8" width="1.2" height="29.5"/>
							</g>
							<g>
								<g>
									<g>
										<rect x="392.6" y="242" class="st8" width="8.4" height="19.4"/>
										<rect x="394.1" y="243.6" class="st9" width="5.2" height="16.3"/>
									</g>
									<g>
										<rect x="404.3" y="242" class="st8" width="8.4" height="19.4"/>
										<rect x="405.9" y="243.6" class="st9" width="5.2" height="16.3"/>
									</g>
								</g>
								<g>
									<g>
										<rect x="337.3" y="242" class="st8" width="8.4" height="19.4"/>
										<rect x="338.9" y="243.6" class="st9" width="5.2" height="16.3"/>
									</g>
									<g>
										<rect x="349.1" y="242" class="st8" width="8.4" height="19.4"/>
										<rect x="350.6" y="243.6" class="st9" width="5.2" height="16.3"/>
									</g>
								</g>
							</g>
						</g>
						<g>
							<g>
								<rect x="382" y="206.3" class="st8" width="8.4" height="19.4"/>
								<rect x="383.5" y="208" class="st9" width="5.2" height="16.3"/>
							</g>
							<g>
								<rect x="404.3" y="206.3" class="st8" width="8.4" height="19.4"/>
								<rect x="405.9" y="208" class="st9" width="5.2" height="16.3"/>
							</g>
							<g>
								<rect x="337.3" y="206.3" class="st8" width="8.4" height="19.4"/>
								<rect x="338.9" y="208" class="st9" width="5.2" height="16.3"/>
							</g>
							<g>
								<rect x="359.7" y="206.3" class="st8" width="8.4" height="19.4"/>
								<rect x="361.2" y="208" class="st9" width="5.2" height="16.3"/>
							</g>
						</g>
						<rect x="327.2" y="230.3" class="st11" width="95.6" height="4.1"/>
					</g>
				</g>
				<g>
					<path class="st14" d="M750,295.5V500H0V295.5C247.3,258,497.3,258.9,750,295.5z"/>
					<path class="st15" d="M84.6,321.7c0,0,379.2-45.6,623,25.4c-1.7-1.2-297.7-32-707.6,51.9V295.5c247.3-37.4,497.3-36.6,750,0
						v7.3C658.9,290.4,288.5,246.5,84.6,321.7z"/>
					<path class="st16" d="M129.3,508.7c17.4-43.3,54.6-71.7,93.3-86.1c38.8-14.4,79.8-17,120.3-22.1c40.4-5.1,81.7-13.4,116.7-37.7
						c7.4-5.1,15.3-12.9,14.5-23c-0.8-10.8-11-16.7-19.8-19.7c-45.3-15.6-93.4-12.6-140.5-15.4c-6.8-0.4-15.9-3.7-14.9-12.1
						c0.5-3.8,2.8-6.9,5.8-8.2c21.9-9.9,60.3-16.6,60.3-16.6c-1.3,0.1,23.7-0.6,20.5,0.3c-17.5,4.7-65.6,18.5-64.7,22.7
						c1.4,6.7,72.9-2,108.9,4.5c35.9,6.5,71.6,21.1,99.7,48.2c15.6,15,28.8,34,36.3,56.1c7.5,22.1,8.8,47.5,1.7,69.7
						c-9.9,31-35.1,54.5-39.1,87.3"/>
				</g>
			</g>
		</g>
	</g>
	<g>
		<defs>
			<rect id="SVGID_00000178184114104715830760000000995621145974555573_" width="362.9" height="500"/>
		</defs>
		<clipPath id="SVGID_00000167376062562358217340000008998011646353691269_">
			<use xlink:href="#SVGID_00000178184114104715830760000000995621145974555573_"  style="overflow:visible;"/>
		</clipPath>
		<g style="clip-path:url(#SVGID_00000167376062562358217340000008998011646353691269_);">
			<g>
				<path class="st18" d="M125,368.1c-13.2,25.5-34.4,55.8-47.6,81.3c-11.4-5.6-19.5-13.1-25.7-24.4c-3.1-5.7-5-11.9-5.6-18.3
					c-0.7-7.4,0.2-15,2.8-22.1c9-25.3,25.2-47.2,45.6-62.9c0.2,0.2,0.3,0.3,0.5,0.5C107.4,336.9,117,352,125,368.1z"/>
				<path class="st19" d="M98.5,329.7c-17.5,16.5-30,38.3-35.5,61.7c-1.1,4.7-2.1,9.8-5.7,12.9c-3.1,2.6-7.2,3.1-11.2,2.4
					c-0.7-7.4,0.2-15,2.8-22.1c9-25.3,25.2-47.2,45.6-62.9c0.2,0.2,0.3,0.3,0.4,0.5C95.9,324.5,97.1,326.9,98.5,329.7z"/>
			</g>
			<g>
				<path class="st20" d="M279.2,367.7c0,0-39,55.4-47.4,55.4c-4.8,0-16.6-10.9-25.9-20.4c-7.1-7.2-12.7-13.5-12.7-13.5l27-25.3
					c0,0,5.9,8,10.3,13.5c2.3,2.8,4.1,5.1,4.6,5.2c1.3,0.4,25.7-22.1,25.7-22.1l9.8-0.4L279.2,367.7z"/>
				<g>
					<path class="st21" d="M277.5,312.2c-1.5-2.6-3.2-5.3-6-6.2c-2.2-0.6-4.5,0-6.7,0.9c-2.9,1.1-5.7,2.6-7.9,4.8
						c-2.2,2.2-3.7,5.2-3.6,8.3s1.9,6.2,4.9,7.3C263.3,322.4,268.9,318,277.5,312.2z"/>
					<path class="st20" d="M254.5,347.3c0.8,6,2.7,11.8,5.7,17.5c3.4,2.7,7.4,4.6,11.5,5.7c3.5,0.9,7.1-0.9,8.6-4.1
						c5.7-12.1,10.2-24.9,13.3-38.9c-2.4-5.8-5.5-11.4-9.3-16.4c-1.1-1.4-2.3-2.9-3.9-3.4c-2.9-0.9-5.8,1-8.6,3.4
						c-1.9-1.6-4.7-2-6.9-0.8c-2.2,1.1-3.5,3.7-3.4,6.9c-4.1,0.4-7.3,4.8-6.1,9.4c-3.3,2.2-5.4,6.1-5.3,10.1
						C250,340.5,252.1,344.4,254.5,347.3z"/>
					<path class="st22" d="M273.1,312.2c4.3,2.6,8.1,6,11.3,9.9"/>
					<path class="st22" d="M263.2,318.3c4.6,2.1,9,4.8,13.1,7.9"/>
					<path class="st22" d="M256.9,326.9c4.5,0.1,9,2,12.3,5.2"/>
					<path class="st22" d="M259.3,346.5c-2-1.4-3.6-3.3-4.7-5.5"/>
					<path class="st22" d="M256.3,344.5c-0.6,0.8-1.3,1.5-1.9,2.3"/>
				</g>
				<path class="st21" d="M230.4,377.4c-6.1,10.2-14.6,18.9-24.5,25.3c-7.1-7.2-12.7-13.5-12.7-13.5l27-25.3
					C220.1,363.9,226,371.9,230.4,377.4z"/>
			</g>
			<g>
				<path class="st23" d="M231.2,503.9l-65.4,4.3c0,0-2.3-3.7-5.7-9.1l0,0c-8.2-12.9-23-35.5-28.5-39.8l-28.5,47.4l-59.6,10.8
					c0,0,26.4-78.5,42.2-107.9c2.5-4.7,4.8-8.5,6.8-11.1l80.1,18.2c0,0,0.5,0.7,1.4,2C182.5,430.3,224.8,488.4,231.2,503.9z"/>
				<path class="st23" d="M174,418.8c-29.6,2.7-59.8-0.4-88.3-9.1c2.5-4.7,4.8-8.5,6.8-11.1l80.1,18.2
					C172.6,416.8,173.1,417.5,174,418.8z"/>
				<g>
					<path class="st24" d="M139.3,419.2c-0.7,12.5-2.5,24.9-5.4,37"/>
					<path class="st24" d="M145.9,418.5c0.2,7.8-0.5,15.6-2.2,23.3c-2.6,1-4.8,2-7.4,3"/>
				</g>
			</g>
			<g>
				<path class="st2" d="M233.3,366.6c-9.8,17.9-40.2,31.2-40.2,31.2l-4.3-8.1c0,0-2.1,18.6-2.5,19.6c0,0.1-0.1,0.1-0.1,0.2
					c-1.1,1.5-8.4,7.4-12.3,8.5c-4.1,1.1-22.5,0-36-1.6c-13.4-1.6-46.2-14.2-47-15.1c-0.9-0.9-6.7-7.4-6.2-15.1
					c0.3-4,4.7-16,8.9-26.5c3.8-9.6,7.4-17.9,7.4-17.9l24.3-49.7c0,0,60.8,22.2,72.2,30.5C208.8,331,233.3,366.6,233.3,366.6z"/>
				<path class="st25" d="M186.2,409.5c-1.1,1.5-8.4,7.4-12.3,8.5c-4.1,1.1-22.5,0-35.9-1.6c-13.4-1.6-46.2-14.2-47.1-15.1
					c-0.8-0.9-6.7-7.4-6.2-15.1c0.3-4,4.7-16,8.9-26.5c4-3.4,8.3-6.4,12.7-9.3c7.4-5.1,15-10.2,27.6-19.3
					c-5.6,19.6-17.3,37.5-32.5,52.1c0.9,6.2,5.4,11.4,10.7,14.8c5.3,3.4,11.4,5.2,16.2,7c2.2-18.2,8.5-35.9,18.5-51.3
					c-1.9,16.9-0.4,34.1,4.8,50.7C161.9,410.4,174.5,412.2,186.2,409.5z"/>
				<g>
					<g>
						<path class="st26" d="M150.2,324c0.1,2.8,0.9,5.6,2.7,8.2c2.4,1.7,5.4,2.7,8.7,2.6c3-1.6,5.7-3.6,7.9-6.1
							C163.4,325.8,156.8,324.1,150.2,324z"/>
						<g>
							<path class="st26" d="M146.6,414.2c-5.4-3.6-13.5-11.9-13.3-13.9c0.5-4.9,6.4-40.9,14.1-59.9c1.8-3.6,4.2-7,8-11
								c1.7,0.8,3.5,1.6,6,2.8c-1.4,22.7,1.2,60.6-0.5,68.5C159.6,407,152.2,410.8,146.6,414.2z"/>
							<g>
								<g>
									<defs>
										<path id="SVGID_00000024693876306181930370000001913484047134407344_" d="M146.6,414.2c-5.4-3.6-13.5-11.9-13.3-13.9
											c0.5-4.9,6.4-40.9,14.1-59.9c1.8-3.6,4.2-7,8-11c1.7,0.8,3.5,1.6,6,2.8c-1.4,22.7,1.2,60.6-0.5,68.5
											C159.6,407,152.2,410.8,146.6,414.2z"/>
									</defs>
									<clipPath id="SVGID_00000118378279969800724440000007766209067623291067_">
										<use xlink:href="#SVGID_00000024693876306181930370000001913484047134407344_"  style="overflow:visible;"/>
									</clipPath>
									<g style="clip-path:url(#SVGID_00000118378279969800724440000007766209067623291067_);">
										<path class="st28" d="M165.2,335c-7.9,1.9-15.4,4.9-23.3,9.6c-0.3,1.3,0,1.4-0.4,2.7c7.5-4.5,14.9-7.9,23.3-10.2
											C164.8,335.9,164.9,335.8,165.2,335z"/>
										<path class="st28" d="M163.2,349.5c-7.9,1.9-15.4,4.9-23.3,9.6c-0.3,1.3,0,1.4-0.3,2.7c7.5-4.5,14.9-7.9,23.3-10.2
											C162.9,350.3,162.9,350.3,163.2,349.5z"/>
										<path class="st28" d="M162.7,363.9c-8.7,2.1-17.1,5.4-25.9,10.5c-0.4,1.5,0,1.5-0.4,3c8.3-4.9,16.5-8.7,25.9-11.2
											C162.3,364.8,162.4,364.8,162.7,363.9z"/>
										<path class="st28" d="M162.7,378.4c-9.7,2.4-19.1,6.3-28.9,12.3c-0.4,1.7,0,1.8-0.4,3.4c9.3-5.7,18.5-10.1,28.9-13.1
											C162.3,379.5,162.3,379.5,162.7,378.4z"/>
										<path class="st28" d="M165.8,395.2c-10.7,2.5-21.1,6.6-31.9,12.9c-0.4,1.8,0,1.8-0.5,3.6c10.2-6,20.4-10.6,31.9-13.7
											C165.3,396.3,165.3,396.3,165.8,395.2z"/>
									</g>
								</g>
							</g>
						</g>
					</g>
					<path class="st25" d="M165.7,321.5c-2.4,2.7-4.6,5.2-7.1,8c9.3,1.9,17.7,7.1,24,14.2c4.9-11.1,5.3-24.2,1.1-35.6
						c-2.6,0.2-5.2-0.5-7.3-2C173.2,310.1,171.4,315.2,165.7,321.5z"/>
					<path class="st25" d="M158.7,329.5c-8.6-3.1-18.3-3-27,0.1c-1.4-7.4,1.9-26.7,14-33.5c7.8,4.6,13.6,12.5,15.9,21.6
						C160.9,321.4,160.2,325.1,158.7,329.5z"/>
					<path class="st21" d="M145.3,295.6c0,0-9.5,14.3,13.3,33.9c0,0,16.6-3.7,20.1-17.6L145.3,295.6z"/>
				</g>
				<g>
					<path class="st29" d="M195.3,339.6c-2.1,16.1-4.3,32.2-6.5,48.3"/>
					<path class="st29" d="M202.9,355.3c-2.7,8.5-7.1,16.5-12.8,23.3"/>
				</g>
				<path class="st25" d="M187.1,378.4c0.6-6.6,2.3-14.6,2.9-21.2c-7.9-2.3-14.6-2.9-22.1-4.1c-1.4,6.7-1.9,13.8-1.8,22.3
					c2.6,3.5,6.6,6.7,9.8,9.4C180.1,383.3,183.1,381.1,187.1,378.4z"/>
			</g>
			<g>
				
					<ellipse transform="matrix(0.2202 -0.9755 0.9755 0.2202 -79.0722 436.7401)" class="st21" cx="233.6" cy="267.8" rx="17.5" ry="14.5"/>
				<path class="st20" d="M231.5,272.3c4.3-14.4,6.5-29.7,4.1-44.5c-2.4-14.8-9.6-29.2-21.4-38.5c-10-7.9-22.8-11.8-35.5-13.1
					c-15.8-1.7-32.6,0.6-45.3,10.2c-12.4,9.3-19.2,24.6-21.3,40c-2.1,15.4,0,31,3.7,47.6c15,23,40.5,38.7,67.8,41.7
					c13.2,1.4,27.4-0.2,37.9-8.2C232,299.4,237.6,283.9,231.5,272.3z"/>
				<path class="st21" d="M121.1,266.2c2.3-5.7,5.2-11.2,9.6-15.9c8.5-6.1,15.1-14.9,18.7-24.3c12.9-2.6,25.5-6.2,38.7-11
					c-0.9,1.5-0.2,3.5,1.1,4.6c1.3,1.1,3.1,1.5,4.8,1.8c10.2,1.5,21-0.9,30.9-5c6.4,12.9,9.9,27.4,10,41.8
					c5.7-16.4,4.7-34.3,3.5-51.3c-15.5-6.2-31-12.3-46-18.3c-20.8,6.8-41.9,12.6-63.7,17.9C119.8,224.1,117.2,244.8,121.1,266.2z"/>
				<g>
					<path class="st30" d="M245.2,231.4c-1.6,11.9-5.4,23.6-11.9,33.9c4.3-20.2,1.3-42.3-9.2-60.6c-5.9,7.6-15.4,12.3-25,12.5
						c-1.7,0-3.7-0.2-4.4-1.8c-0.6-1.2-0.1-2.8,0.6-4c1.7-3.4,3.9-6.6,7.3-9.1c-17.6,11-38.2,17-58.9,17c-3,10.7-8.8,20.6-16,28.2
						c-2.7,9.3-4,19-3.9,28.7c-4-3.7-8.3-7.1-14.8-11.2c-7-19.8-7.8-41.8-2.1-62c1.3-4.8,3-9.5,6.1-13.4c3-3.9,7.6-6.9,12.4-8.4
						c3.4-4,7.2-7.6,11.5-10.7c12.1-8.8,27.1-13.5,42-12.8c20.1,1,39.6,11.8,52,28.7c5.3,1.9,9.4,6.4,11.8,11.5s3.2,10.8,3.5,16.4
						C246.2,220,246,225.7,245.2,231.4z"/>
					<path class="st31" d="M245.2,231.4c-0.6-9.3-3.2-18.5-7.6-26.8c-2.7-5-7.2-10.3-12.9-9.4c-11.5-17.6-28.9-28.1-47.6-30.8
						c-13.8-2-28,0.2-40.6,6.1c12.1-8.8,27.1-13.5,42-12.8c20.1,1,39.6,11.8,52,28.7c5.3,1.9,9.4,6.4,11.8,11.5s3.2,10.8,3.5,16.4
						C246.2,220,246,225.7,245.2,231.4z"/>
				</g>
				
					<ellipse transform="matrix(0.8862 -0.4633 0.4633 0.8862 -113.8431 83.457)" class="st20" cx="113" cy="273.5" rx="14.5" ry="17.5"/>
				<g>
					<path class="st32" d="M145.4,237.7c3-4.2,7.7-7.1,12.7-8c5.1-0.9,10.4,0.3,14.7,3.2c-2.3-5.6-9.1-8.7-15.1-7.5
						S146.9,231.4,145.4,237.7z"/>
					<path class="st32" d="M206.4,232.7c4-1.8,8.2-3.7,12.7-3.6c4.4,0.1,9.1,2.6,10.2,6.9c1.8-3.5-0.1-8.2-3.6-10.2
						c-3.5-2-7.9-1.6-11.5,0C210.5,227.5,207.6,230.3,206.4,232.7z"/>
					<ellipse class="st33" cx="162.4" cy="268.9" rx="3.2" ry="4.2"/>
					<path class="st33" d="M203.7,270.1c0.2-2.3,1.9-4.1,3.7-3.9c1.8,0.2,3,2.2,2.8,4.6c-0.2,2.3-1.9,4.1-3.7,3.9
						C204.7,274.5,203.4,272.5,203.7,270.1z"/>
					<path class="st22" d="M196.5,269.2c1.7,2.7,1.6,6.5-0.4,9.1"/>
					<path class="st2" d="M198.3,285.4c-8.8-0.2-17.6-2.6-25.6-6.3c-0.8,4.2-1.6,8.5-0.9,12.8c0.7,4.2,3.2,8.5,7.2,10
						c4.4,1.7,9.5-0.2,12.8-3.6S196.9,290.5,198.3,285.4z"/>
				</g>
			</g>
			<g>
				<path class="st34" d="M93.8,275.5c-1.4-5.5-3.4-10.8-6.1-16c-18.4,11-30.4,32.1-27.5,54.6c8.8,1.4,19-0.5,25.3-6.8
					C91.8,301,97.8,291.2,93.8,275.5z"/>
				<g>
					<path class="st20" d="M97.7,271.5l-1.5,3.6l-14.7,35.5c0,0-7.8-7-16.2-16.6c-5-5.6-10.3-12.2-14.3-18.6
						c-10.9-17.3-6.8-95.8-6.8-95.8l8.5-5.7l11.7,8.1c0,7.4,14.2,70.8,14.2,70.8L87,261l3.9,3.8L97.7,271.5z"/>
					<g>
						<path class="st21" d="M78.7,131.5c2.7-1.2,5.7-2.5,8.5-1.5c2.2,0.7,3.7,2.6,4.9,4.6c1.7,2.6,3.1,5.4,3.6,8.5
							c0.5,3.1,0,6.4-1.8,8.9c-1.9,2.5-5.2,4-8.2,3.1C84.4,148.1,82.4,141.2,78.7,131.5z"/>
						<path class="st20" d="M77.1,173.5c-4.1,4.4-9.1,8.1-14.7,11c-6.5,0.4-13.1-1.5-18.2-4.8c2.2-15.1,6.2-29.9,12.5-44.9
							c5.3-3.4,11.1-6.1,17.1-8c1.7-0.5,3.5-1,5.2-0.5c2.9,0.9,4.2,4.1,5,7.7c2.5-0.3,5,1.1,6.1,3.3c1.1,2.2,0.8,5-1.2,7.6
							c3.1,2.7,3.2,8.1-0.4,11.2c1.4,3.7,0.8,8.1-1.5,11.3C84.7,170.6,80.7,172.5,77.1,173.5z"/>
						<path class="st22" d="M82.3,134.1c-5-0.4-10.1,0.2-14.9,1.5"/>
						<path class="st22" d="M86.9,144.7c-5-0.9-10.1-1.3-15.2-1.1"/>
						<path class="st22" d="M87.1,155.4c-3.8-2.5-8.5-3.6-13-2.8"/>
						<path class="st22" d="M73.7,170c2.4,0,4.9-0.6,7-1.8"/>
						<path class="st22" d="M77.3,170.1c0.1,1,0.2,2,0.2,3"/>
					</g>
					<path class="st21" d="M96.2,275.1l-14.7,35.5c0,0-7.8-7-16.2-16.6c7-1,13.2-6.4,16.6-12.9C85.1,275,86.2,268,87,261l3.9,3.8
						C92.5,268.4,94.3,271.8,96.2,275.1z"/>
				</g>
				<path class="st2" d="M125.4,323.8l2.9-30.3l-40.2-33.6c0,0-1.5,54.2-28,54.2l40.8,29.9L125.4,323.8z"/>
			</g>
			<g>
				<path class="st35" d="M99.5,354.1c-12.4,10.5-23.9,22.2-33.9,35.9c-1.6,4.9-1.5,11.3,0.9,14.4c9.8-14.7,23.5-28.2,38.1-37.5
					C102.9,363.4,101.2,359.8,99.5,354.1z"/>
				<path class="st36" d="M148.7,301.7c-5.3-3.4-10.8-6.3-16.6-8.5c-8.7,21.6-20.1,42.1-33.5,61.2c-1,1.4-1.3,3.3-0.9,4.9
					c1.2,4,3.6,7.7,6.9,10.5c2.1,1.7,5.2,1.7,7.3,0C132.3,353,146.3,328.7,148.7,301.7z"/>
			</g>
		</g>
	</g>
	<g>
		<defs>
			<rect id="SVGID_00000095336652216606377780000010525977291478709641_" x="369.5" width="383.5" height="500"/>
		</defs>
		<clipPath id="SVGID_00000103246183253115221850000005927021703272950457_">
			<use xlink:href="#SVGID_00000095336652216606377780000010525977291478709641_"  style="overflow:visible;"/>
		</clipPath>
		<g style="clip-path:url(#SVGID_00000103246183253115221850000005927021703272950457_);">
			<path class="st38" d="M499.9,280.4c8.3-1.1,16.4,2.7,23.9,6.4c6.5,3.2,13,6.4,22.3,10.5c26.9,0.4,53.7,3.9,79.8,10.5
				c4.9-8.8,9.8-17.7,14.6-26.5c1.4-2.5,2.8-5.1,2.7-8c-0.2-5-5-8.5-9.5-10.9C601,245.2,562.4,244.7,525,243
				C511.2,251.6,501.3,266.2,499.9,280.4z"/>
			<polygon class="st21" points="494.6,461.5 468.9,521.7 523.6,521.7 526.7,479.7 			"/>
			<g>
				<path class="st18" d="M670.4,455.4c-1.6,5.7-14.2,23-25.8,33.2c-6.2,5.4-12.1,8.8-15.8,7.3c-10.8-4.3-51.1-26.6-51.1-26.6
					l5.8-44.6l2.9-22.4l20.3-5.3l2.4-0.6c0,0,13.6,1.9,23.1,9c8.5,6.3,34,33.9,37.9,46.1C670.5,453.1,670.6,454.5,670.4,455.4z"/>
				<path class="st39" d="M644.6,488.6c-6.2,5.4-12.1,8.8-15.8,7.3c-10.8-4.3-51.1-26.6-51.1-26.6l5.8-44.6
					c4.5-4.8,10.1-8.3,16.4-9.9l5.9,5.2c4.7,9.8,4.2,21.2,4.8,32c0.5,10.9,2.5,22.6,10.4,30C627.2,488,636,489.8,644.6,488.6z"/>
				<path class="st19" d="M670,451.6c-1.4,0.9-3.1,1.5-4.8,1.7c-3.2,0.3-6.4-0.6-9.3-2.1c-11.2-5.7-17.2-18.1-26.9-26.1
					c-4-3.3-8.6-5.8-12.8-9c-4.2-3.1-8-7.1-9.5-12.1c-0.7-2.2-0.7-4.7-0.2-6.9l2.4-0.6c0,0,13.6,1.9,23.1,9
					C640.6,411.8,666.1,439.3,670,451.6z"/>
			</g>
			<g>
				<path class="st23" d="M594,517.5c-38.1-6.8-68-9.2-94.4-19.6l0.9-2l-29.8-13.8c1.1,0,39.8-56.5,43.7-68.9l5.5-16.7l1-3.1l86,1.8
					l1.1,14.9l0.8,11.4C608.7,421.5,610.8,477.8,594,517.5z"/>
				<path class="st23" d="M607.8,410c-21,2.5-42.4,1.5-63-3.1c-8.9-2-17.9-4.8-25-10.4l1-3.1l86,1.8L607.8,410z"/>
				<path class="st40" d="M516.5,411.6c28.4,12.9,60.8,16.7,91.4,10.7"/>
				<path class="st40" d="M566.9,433.5c-4.7,27.1-12.4,53.6-22.8,79.1"/>
				<path class="st40" d="M530.8,427.8c-8.2,26-17.9,49.3-30.3,67.4"/>
			</g>
			<g>
				<path class="st2" d="M572.5,303.2c0,0-29.6,2.3-36.9,5.9c-7.3,3.6-40,36.8-40,36.8l-14.3,40.2c0,0,10.2,11.3,19.7,10.9
					c9.5-0.4,21.4-19.9,21.4-19.9s-6.1,11.5-4,15.3c2.1,3.9,11,11.3,35.9,12.6s54-2,56.7-9.4c2.7-7.4-1.3-17.8-1.3-37.7
					s1.8-57.7,0.4-57.7C608.8,300.4,572.5,303.2,572.5,303.2z"/>
				<path class="st25" d="M601.1,349.8c-1,0-22.4-2.6-22.4-2.6s-2.4,14.1-1.3,18.3c1.1,4.2,8.3,8.4,8.3,8.4s11.6-2,12.9-6
					C600,363.7,601.1,349.8,601.1,349.8z"/>
				<g>
					<path class="st26" d="M558.7,319.3c1.2,3.1,2.9,7,5,9.6c3,1.2,6.1,1.5,9,0.8c2.6-1.7,4.4-3.9,5.6-6.5
						C572.2,320.9,565.4,318.9,558.7,319.3z"/>
					<g>
						<path class="st26" d="M539.3,390.1c1.4-8,18.3-42,25.6-63.6c2.8-0.2,4.7-0.2,6.6-0.3c2,5.2,2.9,9.2,3.2,13.2
							c-0.1,20.5-8.3,56.1-9.7,60.8c-0.6,2-11.2,6.5-17.6,7.8C543.6,402.8,538.2,396.4,539.3,390.1z"/>
						<g>
							<g>
								<defs>
									<path id="SVGID_00000183227605191645052700000013419821346891121054_" d="M539.3,390.1c1.4-8,18.3-42,25.6-63.6
										c2.8-0.2,4.7-0.2,6.6-0.3c2,5.2,2.9,9.2,3.2,13.2c-0.1,20.5-8.3,56.1-9.7,60.8c-0.6,2-11.2,6.5-17.6,7.8
										C543.6,402.8,538.2,396.4,539.3,390.1z"/>
								</defs>
								<clipPath id="SVGID_00000145768904507163720360000017667701392694573725_">
									<use xlink:href="#SVGID_00000183227605191645052700000013419821346891121054_"  style="overflow:visible;"/>
								</clipPath>
								<g style="clip-path:url(#SVGID_00000145768904507163720360000017667701392694573725_);">
									<path class="st28" d="M556.9,341.1c7.8-3.9,15.6-6.3,24.1-7.9c-1.1-0.8-0.9-1-2.1-1.8c-9,1.8-16.7,4.6-23.8,8.4
										C556,340.2,556.1,340.2,556.9,341.1z"/>
									<path class="st28" d="M552.4,355.5c7.9-3.6,15.8-5.8,24.4-7.2c-1.1-0.8-0.9-1-2-1.8c-9.1,1.5-16.8,4-24,7.7
										C551.6,354.5,551.6,354.5,552.4,355.5z"/>
									<path class="st28" d="M545.5,371.1c8.8-3.9,19.4-6.6,28.9-8.1c-1.2-0.9-1-1.2-2.2-2c-10,1.6-18.7,4.3-26.7,8.3
										C546.4,369.7,544.6,370.1,545.5,371.1z"/>
									<path class="st28" d="M539.9,386c10.1-3.8,21.1-5.6,31.9-6.5c-1.3-1.1,1.3-1.6,0-2.7c-11.4,1-24.6,3.5-33.9,7.4
										C538.9,384.7,538.9,384.7,539.9,386z"/>
									<path class="st28" d="M537.9,405.2c11.2-4.1,22.1-6.3,33.9-7.4c-1.4-1.2-1.1-1.5-2.5-2.7c-12.4,1.2-23.2,3.9-33.4,8.1
										C536.9,403.8,536.9,403.8,537.9,405.2z"/>
								</g>
							</g>
						</g>
					</g>
				</g>
				<g>
					<path class="st25" d="M567,325.6c10.1-4.5,22.8-4.1,32.4,1.1c0.5-7.4,0.5-14.2-1.6-21.5c-0.7-2.4-2.5-5.6-5-6.7
						c-3-1.3-7,0-9.6-1.8C578.7,305.6,574.2,314.6,567,325.6z"/>
					<path class="st25" d="M566.8,325.7c-7.3-7.2-19-10.6-29.4-7.5c2.4-6.1,4.9-12.3,9.5-17.3c4.7-4.9,12-8.4,19.6-7.1
						C566.8,304,566.3,314.7,566.8,325.7z"/>
					<path class="st21" d="M588.4,293.2c-0.4,3.6-0.3,7.3,1.8,11.1c-5.7,8.4-13.6,15.6-23.4,21.2c-5.9-5.7-9.1-13.5-7.6-21.7
						c2.2-2.6,3.4-5.8,3.3-9C570.4,295.4,578.4,295.2,588.4,293.2z"/>
				</g>
				<g>
					<path class="st29" d="M531.8,334.9c-4.2,13.8-7.6,27.9-10.1,42"/>
					<path class="st29" d="M519.1,340.2c0,8.7,1.6,17.3,4.5,25.5"/>
				</g>
			</g>
			<g>
				<path class="st42" d="M516.8,237.6c-3.2,11.2-15.3,18-20,28.7c-4.9,11-1,23.9,5.3,34.2c0.6-16.4,7.7-32.6,19.4-44.4
					C519.4,250.2,518.1,244.2,516.8,237.6z"/>
				<path class="st21" d="M504.8,245.3c0.4-9.7,7.2-17.2,15.2-16.9c8,0.3,14.2,8.4,13.8,18s-7.2,17.2-15.2,16.9
					C510.6,263,504.4,254.9,504.8,245.3z"/>
				<path class="st20" d="M521.1,250.6c-3.4-45.2,24.7-90.5,74-80.5c58.1,6.8,64.1,69.1,35.7,110.6c-24.1,29.5-82.7,28.1-103.4,9.3
					C517.6,281.1,512,269.3,521.1,250.6z"/>
				<path class="st21" d="M625.4,288.2c2.1-10.5,3-21.2,2.6-31.1c-7-4-13.6-8.7-19.7-14.1c-12.1,0.9-24.4-3.3-34.4-11.2
					c-8.6-0.6-16.9-4.2-23.2-10.1c-6.3-5.9-10.4-14-11.6-21.8c-8,8.2-14.4,17.9-18.7,28.5c1.3-21.8,14.7-42.4,34.6-52
					c29.8,15.8,59.5,31.6,90.1,47.4C643,245.4,636.3,266.4,625.4,288.2z"/>
				<g>
					<path class="st43" d="M664.9,270c-2,18.8-8.6,31.2-19,39.3c-10.4,8-24.1,11.6-37.1,9.5c12-20.6,19.4-43.8,21.8-67.5
						c-9.3-3.9-15.6-8.5-20.4-14.4c-12.3,1.2-24.8-1.8-33.7-9.3c-11.4-0.7-21.1-6.5-26.2-15.2c-5.2-8.7-5.7-20-1.3-29.1
						c-17.2,14.9-26.4,36-27.9,59.7c-3.3-14.2-6.8-28.4-0.4-45.2c0.3-0.8,0.6-1.6,0.9-2.3c6.1-14.3,18.5-26.5,33.8-29.1
						c18.6-9.1,41-10.6,60.9-3.8c10.3,3.5,19.8,9.3,27.6,16.7c7.4,7,13.4,15.5,17.2,25C669.4,224.8,667.2,247.9,664.9,270z"/>
					<g>
						<path class="st44" d="M619.8,194.4c8.7,17.3,12.8,36.9,11.7,56.2"/>
						<path class="st44" d="M596.6,196.9c1.7,13.9,6.3,27.4,13.5,39.4"/>
						<path class="st44" d="M567.7,187.2c-0.5,13.7,2.5,27.5,8.5,39.8"/>
					</g>
					<path class="st45" d="M644,179.2c-11.4-6.8-24.2-11.2-37.4-12.7c-17.9-2-36.3,1.4-52,10.2c-13.3,2.8-25.4,10.5-33.9,21
						c0.3-0.8,0.6-1.6,0.9-2.3c6.1-14.3,18.5-26.5,33.8-29.1c18.6-9.1,41-10.6,60.9-3.8C626.6,166,636.1,171.8,644,179.2z"/>
				</g>
				<g>
					<path class="st32" d="M609.7,243.4c-1.8-4.8-5.6-8.8-10.2-11c-4.7-2.2-10.2-2.4-15-0.7c3.7-4.8,11-6,16.5-3.3
						S609.9,236.9,609.7,243.4z"/>
					<path class="st32" d="M552.2,229.2c-3.4-2.8-7-5.7-11.3-6.7c-4.3-1.1-9.5,0.2-11.6,4.1c-0.9-3.9,2.2-7.9,6.1-9s8,0.5,11.1,3
						C549.6,223.1,551.7,226.6,552.2,229.2z"/>
					<path class="st33" d="M583.9,263c0.6-2.3,2.5-3.7,4.2-3.3c1.7,0.5,2.7,2.7,2,4.9c-0.6,2.3-2.5,3.7-4.2,3.3
						C584.2,267.5,583.3,265.3,583.9,263z"/>
					<path class="st33" d="M540.4,253.5c0.4-2.3,2.1-4,3.9-3.7c1.8,0.3,2.9,2.4,2.6,4.7c-0.4,2.3-2.1,4-3.9,3.7
						C541.2,257.9,540,255.8,540.4,253.5z"/>
					<path class="st22" d="M555.4,256.4c-2.6,1.9-3.9,5.5-3,8.6"/>
					<path class="st2" d="M554.3,273.6c7.6,1.2,15.5,0.5,23.1-1.5c0,3.8,0,7.8-1.2,11.4c-1.3,3.6-4.1,6.9-7.8,7.7
						c-4,0.8-8.2-1.7-10.5-5.1C555.6,282.5,554.7,278.3,554.3,273.6z"/>
				</g>
			</g>
			<g>
				<g>
					<polygon class="st20" points="706.6,242.1 675.5,287.6 666,301.6 654.5,269.5 659.8,263.2 691.9,224.6 					"/>
					<path class="st20" d="M690.8,227.1c-2.5-10.3,4.7-21.5,1.1-31.4c-0.5-1.5-1.3-2.9-1.5-4.4c-0.2-1.6,0.3-3.4,1.7-4
						c1.7-0.8,3.7,0.6,4.9,2.1c3.6,4.1,5.8,9.5,6.6,15.6c5.5-6.7,11.1-13.3,16.6-20c1.5-1.8,3.6-3.7,5.7-2.9c1.4,0.6,2.1,2.3,2,3.9
						c-0.1,1.6-0.8,3-1.5,4.3c-2.8,5.3-5.6,10.7-8.4,16c4.7-3.4,9.4-6.7,14.1-10.1c1.3-0.9,2.7-1.9,4.2-2.2c1.6-0.3,3.4,0.2,4.2,1.6
						c1.4,2.3-0.9,5.1-2.9,6.9c-4.1,3.6-8.2,7.3-12.3,10.9c5.6-1.4,11.1-2.9,16.7-4.3c2.2-0.6,5.1-0.8,6,1.3
						c1.1,2.4-1.8,4.6-4.2,5.6c-5.2,2.2-10.4,4.5-15.6,6.7c5.1-0.2,10.3-0.4,15.4-0.6c1.3-0.1,2.7,0,3.5,1c0.9,1.1,0.5,2.9-0.5,4
						c-1.1,1-2.5,1.4-3.9,1.8c-12.2,3.4-24,8.3-35.7,14C702,237.2,697,231.5,690.8,227.1z"/>
					<path class="st21" d="M675.5,287.6l-9.6,14l-11.5-32.2l5.3-6.3C661.8,272.9,667.6,281.8,675.5,287.6z"/>
				</g>
				<polygon class="st2" points="603.6,327.4 603.4,301.4 655,267.7 672.8,302.8 607.4,358.7 				"/>
				<path class="st25" d="M676.1,302.8c-9.9-10.8-16.3-24.9-17.9-39.5c-5.5,2.5-10.6,6-14.8,10.4c-2.8,17,4,35.4,17.3,46.4
					C665.7,314.6,670.7,309.1,676.1,302.8z"/>
			</g>
			<g>
				<path class="st34" d="M489.4,351.4l-5.5-13.3c0,0-24.2,9.1-18,33l17,1.4L489.4,351.4z"/>
				<g>
					<path class="st20" d="M494.5,353.2l-12.9-14.1l-18-19.7l-13.9,18.1l14,18.6l15.6,20.9l3.5,4.6l2.4,3.2c0.2-0.4,0.3-0.7,0.5-1.1
						c3.1-6.9,5-14.3,7-21.7C492.9,359,493.5,356,494.5,353.2z"/>
					<path class="st21" d="M493.4,355.1c0-1,0.2-1.8,0.6-2.5l-12.4-13.6c-3.6,7.6-10.2,13.7-17.9,17l15.6,20.9
						c3.4-1,6.7-2.9,9.8-4.8c1.3-0.8,2.6-1.6,3.9-2.5C493.3,364.8,493.4,360,493.4,355.1z"/>
					<path class="st20" d="M464.8,321.8c2-10.4-5.7-21.3-2.5-31.4c0.5-1.5,1.2-2.9,1.3-4.5c0.1-1.6-0.5-3.4-1.9-3.9
						c-1.8-0.7-3.6,0.8-4.8,2.3c-3.4,4.3-5.4,9.8-5.9,15.9c-5.8-6.4-11.6-12.8-17.5-19.2c-1.5-1.7-3.8-3.5-5.8-2.6
						c-1.4,0.6-2,2.4-1.8,3.9c0.2,1.5,1,2.9,1.7,4.3c3,5.2,6,10.4,9.1,15.6c-4.8-3.1-9.7-6.3-14.5-9.5c-1.3-0.9-2.7-1.8-4.3-2
						c-1.6-0.2-3.4,0.3-4.1,1.7c-1.2,2.4,1.1,5.1,3.2,6.8c4.2,3.5,8.5,6.9,12.8,10.3c-5.6-1.2-11.2-2.4-16.9-3.6
						c-2.2-0.5-5.1-0.6-6,1.5c-1,2.5,2,4.5,4.4,5.5c5.3,2,10.6,4,15.9,6c-5.1,0-10.3,0.1-15.4,0.1c-1.3,0-2.7,0.1-3.5,1.1
						c-0.9,1.2-0.4,3,0.7,3.9c1.1,1,2.6,1.3,4,1.6c12.3,2.9,24.3,7.2,36.3,12.4C454.1,332.4,458.9,326.4,464.8,321.8z"/>
				</g>
				<path class="st25" d="M483.1,392.8c7.1-5.5,11.1-14.3,12.6-23.2c1.5-8.9,0.8-18,0.9-25.4c-4.1-2.3-8.2-4.6-12.7-6
					c-0.5,13-7.4,25.6-18,33C471.2,378,476.5,384.9,483.1,392.8z"/>
			</g>
			<path class="st36" d="M608.9,296.6c-3.8,0.6-5.9,1.5-9.6,3.9c-15.6,80.8,21.1,138.3,21.1,138.3l3.7-15.2
				C606.9,391.1,601.2,347.1,608.9,296.6z"/>
		</g>
	</g>
</g>
<g id="TEXTS">
</g>
</svg>
